<?xml version="1.0" standalone="no"?>
<!DOCTYPE svg PUBLIC "-//W3C//DTD SVG 20010904//EN"
 "http://www.w3.org/TR/2001/REC-SVG-20010904/DTD/svg10.dtd">
<svg version="1.0" xmlns="http://www.w3.org/2000/svg"
 width="128.000000pt" height="128.000000pt" viewBox="0 0 128.000000 128.000000"
 preserveAspectRatio="xMidYMid meet">
<metadata>
Created by potrace 1.10, written by Peter Selinger 2001-2011
</metadata>
<g transform="translate(0.000000,128.000000) scale(0.100000,-0.100000)"
fill="#000000" stroke="none">
<path d="M185 1270 c-4 -6 -9 -35 -12 -65 l-6 -54 31 -3 c26 -3 46 -23 140
-148 l110 -145 -97 -5 -96 -5 0 -123 c0 -110 2 -122 18 -122 9 0 17 -1 17 -3
0 -1 -36 -105 -80 -231 -44 -125 -80 -240 -80 -255 0 -45 34 -89 80 -101 28
-8 159 -10 397 -8 l355 3 29 33 c21 23 29 42 29 70 0 28 -106 353 -155 475 -6
13 -2 17 15 17 21 0 22 4 18 63 l-3 62 64 0 65 0 -3 -107 -3 -108 66 0 66 0 0
173 0 172 -225 -3 -225 -3 112 150 113 150 113 1 112 0 0 65 0 65 -85 0 c-47
0 -85 -4 -85 -8 0 -4 -9 -8 -20 -8 -11 0 -20 4 -20 8 0 12 -748 10 -755 -2z
m755 -55 l0 -25 -365 0 -365 0 0 25 0 25 365 0 365 0 0 -25z m170 0 c0 -24 -2
-25 -65 -25 -63 0 -65 1 -65 25 0 24 2 25 65 25 63 0 65 -1 65 -25z m-247 -78
c-4 -7 -55 -74 -112 -150 l-103 -137 -73 0 -73 0 -87 118 c-49 64 -99 132
-113 150 l-24 32 296 0 c239 0 295 -3 289 -13z m-8 -412 l0 -85 -277 0 -278 0
0 85 0 85 278 0 277 0 0 -85z m255 -46 c0 -127 0 -130 -21 -127 -21 3 -22 8
-20 111 l2 107 -90 0 c-84 0 -91 1 -91 20 0 19 7 20 110 20 l110 0 0 -131z
m-250 -201 c39 -114 40 -123 24 -135 -10 -7 -19 -11 -21 -9 -2 2 -18 47 -36
101 -33 99 -42 111 -64 97 -9 -6 -3 -32 22 -102 19 -52 35 -98 35 -102 0 -15
-77 -8 -135 12 -32 11 -81 20 -110 20 -29 0 -78 -9 -110 -20 -32 -11 -77 -20
-99 -19 -46 1 -111 21 -111 35 0 5 18 62 40 127 l40 117 241 0 242 0 42 -122z
m-185 -178 c32 -11 82 -20 111 -20 l52 0 20 -57 c11 -32 23 -66 27 -76 6 -15
0 -17 -54 -17 -57 0 -61 -2 -61 -23 0 -22 3 -22 78 -19 42 2 81 7 85 12 5 4
-6 49 -24 100 -27 76 -30 93 -18 101 8 5 17 9 21 9 8 0 68 -178 68 -203 0 -10
-11 -29 -25 -42 l-24 -25 -345 0 c-201 0 -355 4 -370 10 -51 19 -54 50 -16
158 18 53 34 98 35 100 1 1 21 -5 45 -13 57 -20 145 -18 200 5 60 24 124 24
195 0z"/>
<path d="M541 552 c-47 -91 -31 -164 34 -164 64 0 82 74 37 160 -26 51 -46 52
-71 4z m54 -80 c5 -25 3 -33 -10 -38 -28 -11 -38 10 -25 57 13 46 22 42 35
-19z"/>
<path d="M680 104 c0 -21 4 -25 23 -22 14 2 23 11 25 26 3 18 -1 22 -22 22
-21 0 -26 -5 -26 -26z"/>
</g>
</svg>
